<svg width="120" height="120" viewBox="0 0 120 120" fill="none" xmlns="http://www.w3.org/2000/svg">
<g clip-path="url(#clip0_1_66)">
<path d="M26.0001 5.1812e-05H94.0001C97.4163 -0.0067749 100.8 0.661075 103.958 1.96528C107.115 3.26948 109.984 5.18437 112.4 7.60005C114.816 10.0157 116.731 12.8847 118.035 16.0422C119.339 19.1998 120.007 22.5838 120 26.0001V94.0001C120.007 97.4163 119.339 100.8 118.035 103.958C116.731 107.115 114.816 109.984 112.4 112.4C109.984 114.816 107.115 116.731 103.958 118.035C100.8 119.339 97.4163 120.007 94.0001 120H26.0001C22.5838 120.007 19.1998 119.339 16.0422 118.035C12.8847 116.731 10.0157 114.816 7.60005 112.4C5.18437 109.984 3.26948 107.115 1.96528 103.958C0.661075 100.8 -0.0067749 97.4163 5.1812e-05 94.0001V26.0001C0.00323176 19.1054 2.74353 12.494 7.61879 7.61879C12.494 2.74353 19.1054 0.00323176 26.0001 5.1812e-05Z" fill="#1E1E1F"/>
<path fill-rule="evenodd" clip-rule="evenodd" d="M24 30H96C97.5899 30.0047 99.1133 30.6383 100.238 31.7625C101.362 32.8867 101.995 34.4101 102 36V70C101.995 71.5899 101.362 73.1133 100.238 74.2375C99.1133 75.3617 97.5899 75.9953 96 76H24C22.4101 75.9953 20.8867 75.3617 19.7625 74.2375C18.6383 73.1133 18.0047 71.5899 18 70V36C18.0047 34.4101 18.6383 32.8867 19.7625 31.7625C20.8867 30.6383 22.4101 30.0047 24 30Z" fill="white"/>
<path fill-rule="evenodd" clip-rule="evenodd" d="M22 26H98C100.12 26.0062 102.151 26.8511 103.65 28.35C105.149 29.8489 105.994 31.8802 106 34V86C105.994 88.1198 105.149 90.1511 103.65 91.65C102.151 93.1489 100.12 93.9938 98 94H22C19.8802 93.9938 17.8489 93.1489 16.35 91.65C14.8511 90.1511 14.0062 88.1198 14 86V34C14.0062 31.8802 14.8511 29.8489 16.35 28.35C17.8489 26.8511 19.8802 26.0062 22 26Z" fill="#D9D6CC"/>
<path fill-rule="evenodd" clip-rule="evenodd" d="M24 30H96C97.5899 30.0047 99.1133 30.6383 100.238 31.7625C101.362 32.8867 101.995 34.4101 102 36V70C101.995 71.5899 101.362 73.1133 100.238 74.2375C99.1133 75.3617 97.5899 75.9953 96 76H24C22.4101 75.9953 20.8867 75.3617 19.7625 74.2375C18.6383 73.1133 18.0047 71.5899 18 70V36C18.0047 34.4101 18.6383 32.8867 19.7625 31.7625C20.8867 30.6383 22.4101 30.0047 24 30Z" fill="#3B99C9"/>
<path fill-rule="evenodd" clip-rule="evenodd" d="M24 37H96C97.5899 37.0047 99.1133 37.6383 100.238 38.7625C101.362 39.8867 101.995 41.4101 102 43V55C101.995 56.5899 101.362 58.1133 100.238 59.2375C99.1133 60.3617 97.5899 60.9953 96 61H24C22.4101 60.9953 20.8867 60.3617 19.7625 59.2375C18.6383 58.1133 18.0047 56.5899 18 55V43C18.0047 41.4101 18.6383 39.8867 19.7625 38.7625C20.8867 37.6383 22.4101 37.0047 24 37Z" fill="black"/>
<path fill-rule="evenodd" clip-rule="evenodd" d="M24 37H96C97.5899 37.0047 99.1133 37.6383 100.238 38.7625C101.362 39.8867 101.995 41.4101 102 43V55C101.995 56.5899 101.362 58.1133 100.238 59.2375C99.1133 60.3617 97.5899 60.9953 96 61H24C22.4101 60.9953 20.8867 60.3617 19.7625 59.2375C18.6383 58.1133 18.0047 56.5899 18 55V43C18.0047 41.4101 18.6383 39.8867 19.7625 38.7625C20.8867 37.6383 22.4101 37.0047 24 37Z" fill="#FFB003"/>
<path fill-rule="evenodd" clip-rule="evenodd" d="M24 44H96C97.5899 44.0047 99.1133 44.6383 100.238 45.7625C101.362 46.8867 101.995 48.4101 102 50V62C101.995 63.5899 101.362 65.1133 100.238 66.2375C99.1133 67.3617 97.5899 67.9953 96 68H24C22.4101 67.9953 20.8867 67.3617 19.7625 66.2375C18.6383 65.1133 18.0047 63.5899 18 62V50C18.0047 48.4101 18.6383 46.8867 19.7625 45.7625C20.8867 44.6383 22.4101 44.0047 24 44Z" fill="black"/>
<path fill-rule="evenodd" clip-rule="evenodd" d="M24 44H96C97.5899 44.0047 99.1133 44.6383 100.238 45.7625C101.362 46.8867 101.995 48.4101 102 50V62C101.995 63.5899 101.362 65.1133 100.238 66.2375C99.1133 67.3617 97.5899 67.9953 96 68H24C22.4101 67.9953 20.8867 67.3617 19.7625 66.2375C18.6383 65.1133 18.0047 63.5899 18 62V50C18.0047 48.4101 18.6383 46.8867 19.7625 45.7625C20.8867 44.6383 22.4101 44.0047 24 44Z" fill="#50BE3D"/>
<path fill-rule="evenodd" clip-rule="evenodd" d="M24 51H96C97.5899 51.0047 99.1133 51.6383 100.238 52.7625C101.362 53.8867 101.995 55.4101 102 57V69C101.995 70.5899 101.362 72.1133 100.238 73.2375C99.1133 74.3617 97.5899 74.9953 96 75H24C22.4101 74.9953 20.8867 74.3617 19.7625 73.2375C18.6383 72.1133 18.0047 70.5899 18 69V57C18.0047 55.4101 18.6383 53.8867 19.7625 52.7625C20.8867 51.6383 22.4101 51.0047 24 51Z" fill="black"/>
<path fill-rule="evenodd" clip-rule="evenodd" d="M24 51H96C97.5899 51.0047 99.1133 51.6383 100.238 52.7625C101.362 53.8867 101.995 55.4101 102 57V69C101.995 70.5899 101.362 72.1133 100.238 73.2375C99.1133 74.3617 97.5899 74.9953 96 75H24C22.4101 74.9953 20.8867 74.3617 19.7625 73.2375C18.6383 72.1133 18.0047 70.5899 18 69V57C18.0047 55.4101 18.6383 53.8867 19.7625 52.7625C20.8867 51.6383 22.4101 51.0047 24 51Z" fill="#F26D5F"/>
<path fill-rule="evenodd" clip-rule="evenodd" d="M14 58H106V86C105.994 88.1198 105.149 90.1511 103.65 91.65C102.151 93.1489 100.12 93.9938 98 94H22C19.8802 93.9938 17.8489 93.1489 16.35 91.65C14.8511 90.1511 14.0062 88.1198 14 86V58ZM41 58C50 58 51 69.5 60 69.5C69 69.5 70 58 79 58H41Z" fill="black"/>
<path fill-rule="evenodd" clip-rule="evenodd" d="M14 58H106V86C105.994 88.1198 105.149 90.1511 103.65 91.65C102.151 93.1489 100.12 93.9938 98 94H22C19.8802 93.9938 17.8489 93.1489 16.35 91.65C14.8511 90.1511 14.0062 88.1198 14 86V58ZM41 58C50 58 51 69.5 60 69.5C69 69.5 70 58 79 58H41Z" fill="#D9D6CC"/>
</g>
<defs>
<clipPath id="clip0_1_66">
<rect width="120" height="120" fill="white"/>
</clipPath>
</defs>
</svg>
