<svg width="24" height="24" viewBox="0 0 24 24" fill="none" xmlns="http://www.w3.org/2000/svg">
<path d="M12 13.5C12.663 13.5 13.2989 13.2366 13.7678 12.7678C14.2366 12.2989 14.5 11.663 14.5 11C14.5 10.337 14.2366 9.70107 13.7678 9.23223C13.2989 8.76339 12.663 8.5 12 8.5C11.337 8.5 10.7011 8.76339 10.2322 9.23223C9.76339 9.70107 9.5 10.337 9.5 11C9.5 11.663 9.76339 12.2989 10.2322 12.7678C10.7011 13.2366 11.337 13.5 12 13.5Z" fill="#A02929"/>
<path d="M19.071 3.42899H19.072C22.977 7.33399 22.977 13.666 19.072 17.571L13.669 22.974C13.2265 23.4161 12.6265 23.6644 12.001 23.6644C11.3755 23.6644 10.7755 23.4161 10.333 22.974L4.958 17.599L4.93 17.571C1.025 13.666 1.025 7.33399 4.93 3.42899C8.835 -0.476006 15.166 -0.476006 19.071 3.42899ZM5.99 4.48899C4.39619 6.08302 3.50082 8.24585 3.50082 10.5C3.50082 12.7541 4.39619 14.916 5.99 16.51L6.013 16.534L6.015 16.536L11.393 21.914C11.5542 22.0746 11.7725 22.1648 12 22.1648C12.2275 22.1648 12.4458 22.0746 12.607 21.914L18.01 16.51C19.585 14.9121 20.4643 12.7563 20.4563 10.5126C20.4482 8.269 19.5534 6.11956 17.967 4.53299C16.3806 2.94643 14.2312 2.05145 11.9876 2.04321C9.74394 2.03496 7.58805 2.91413 5.99 4.48899Z" fill="#A02929"/>
</svg>
